<?xml version="1.0" encoding="iso-8859-1"?>
<!-- Generator: Adobe Illustrator 23.0.3, SVG Export Plug-In . SVG Version: 6.00 Build 0)  -->
<svg version="1.1" id="Layer_1" xmlns="http://www.w3.org/2000/svg" xmlns:xlink="http://www.w3.org/1999/xlink" x="0px" y="0px"
	 viewBox="0 0 48 48" style="enable-background:new 0 0 48 48;" xml:space="preserve">
<path style="fill:none;stroke:#000000;stroke-width:3;stroke-linecap:round;stroke-linejoin:round;stroke-miterlimit:10;" d="
	M17.5,44.5L17.5,44.5c-3.866,0-7-3.134-7-7l0,0c0-3.866,3.134-7,7-7h7v7C24.5,41.366,21.366,44.5,17.5,44.5z"/>
<path style="fill:none;stroke:#000000;stroke-width:3;stroke-linecap:round;stroke-linejoin:round;stroke-miterlimit:10;" d="
	M32,4.5h-7.5"/>
<path style="fill:none;stroke:#000000;stroke-width:3;stroke-linecap:round;stroke-linejoin:round;stroke-miterlimit:10;" d="
	M24.5,17.5H32c3.59,0,6.5-2.91,6.5-6.5c0-1.138-0.292-2.208-0.806-3.138"/>
<path style="fill:none;stroke:#000000;stroke-width:3;stroke-linecap:round;stroke-linejoin:round;stroke-miterlimit:10;" d="
	M17,30.5h7.5v-13H17c-3.59,0-6.5,2.91-6.5,6.5c0,1.202,0.326,2.328,0.895,3.294"/>
<path style="fill:none;stroke:#000000;stroke-width:3;stroke-linecap:round;stroke-linejoin:round;stroke-miterlimit:10;" d="
	M32.5,32c-3.59,0-6.5-2.91-6.5-6.5s2.91-6.5,6.5-6.5s6.5,2.91,6.5,6.5c0,1.561-0.55,2.993-1.467,4.113"/>
<path style="fill:none;stroke:#000000;stroke-width:3;stroke-linecap:round;stroke-linejoin:round;stroke-miterlimit:10;" d="
	M17,4.5c-3.59,0-6.5,2.91-6.5,6.5s2.91,6.5,6.5,6.5h7.5v-13H17z"/>
</svg>