<?xml version="1.0" encoding="iso-8859-1"?>
<!-- Generator: Adobe Illustrator 23.0.3, SVG Export Plug-In . SVG Version: 6.00 Build 0)  -->
<svg version="1.1" id="Layer_1" xmlns="http://www.w3.org/2000/svg" xmlns:xlink="http://www.w3.org/1999/xlink" x="0px" y="0px"
	 viewBox="0 0 48 48" style="enable-background:new 0 0 48 48;" xml:space="preserve">
<path style="fill:none;stroke:#000000;stroke-width:3;stroke-linecap:round;stroke-linejoin:round;stroke-miterlimit:10;" d="
	M9.473,18.79l1.486,18.785c0.062,0.784,0.578,1.46,1.319,1.725l11.047,3.959c0.436,0.156,0.913,0.156,1.349,0l11.047-3.959
	c0.741-0.265,1.257-0.941,1.319-1.725l0.344-4.35"/>
<path style="fill:none;stroke:#000000;stroke-width:3;stroke-linecap:round;stroke-linejoin:round;stroke-miterlimit:10;" d="
	M37.959,25.968l1.37-17.31C39.421,7.495,38.502,6.5,37.335,6.5H10.665c-1.167,0-2.086,0.995-1.994,2.158l0.277,3.505"/>
<g>
	
		<polyline style="fill:none;stroke:#000000;stroke-width:3;stroke-linecap:round;stroke-linejoin:round;stroke-miterlimit:10;" points="
		17.702,13.439 32.149,13.439 31.198,32.219 24.543,34.561 17.616,31.927 17.616,29.683 	"/>
	
		<line style="fill:none;stroke:#000000;stroke-width:3;stroke-linecap:round;stroke-linejoin:round;stroke-miterlimit:10;" x1="20.374" y1="23.004" x2="31.676" y2="23.004"/>
</g>
</svg>