<?xml version="1.0" encoding="iso-8859-1"?>
<svg version="1.1" id="Layer_1" xmlns="http://www.w3.org/2000/svg" xmlns:xlink="http://www.w3.org/1999/xlink" x="0px" y="0px"
	 viewBox="0 0 48 48" style="enable-background:new 0 0 48 48;" xml:space="preserve">
<path style="fill:none;stroke:#000;stroke-width:3;stroke-linecap:round;stroke-linejoin:round;" d="M42.656,16.549
	c0.298-0.63,0.543-1.212,0.734-1.728c0.416-1.125-0.394-2.322-1.594-2.322h-3.478c-1.153,0-1.828,0.414-2.15,1.073
	c-2.826,5.791-5.541,8.113-7.237,9.578c-0.95,0.82-2.431,0.141-2.431-1.108c0-2.408,0-5.397,0-7.602c0-1.068-0.865-1.928-1.932-1.93
	l-6.091-0.01c-0.799-0.001-1.256,0.91-0.778,1.549l1.174,1.571c0.397,0.525,0.612,1.163,0.612,1.819l0.025,6.737
	c0,1.187-1.438,1.767-2.292,0.935c-2.888-2.813-5.58-8.559-6.484-11.308c-0.263-0.801-1.009-1.335-1.852-1.337l-3.447-0.009
	c-1.294,0-2.239,1.226-1.887,2.46c0.735,2.578,1.634,5.12,2.729,7.516"/>
<path style="fill:none;stroke:#000;stroke-width:3;stroke-linecap:round;stroke-linejoin:round;" d="M9.439,28.066
	c3.52,5.086,8.35,8.759,14.912,9.426c1.163,0.118,2.166-0.828,2.166-1.997v-4.047c0-1.029,0.799-1.909,1.828-1.938
	c0.041-0.001,0.083-0.002,0.126-0.002c3.046,0,6.493,4.969,7.686,7.043c0.344,0.597,0.985,0.961,1.678,0.961h4.875
	c1.351,0.001,2.213-1.452,1.553-2.632c-1.684-3.012-5.582-6.531-7.357-8.101c-0.498-0.441-0.516-1.197-0.064-1.684
	c1.079-1.162,2.041-2.372,2.881-3.562"/>
</svg>
