<?xml version="1.0" encoding="iso-8859-1"?>
<!-- Generator: Adobe Illustrator 23.0.3, SVG Export Plug-In . SVG Version: 6.00 Build 0)  -->
<svg version="1.1" id="Layer_1" xmlns="http://www.w3.org/2000/svg" xmlns:xlink="http://www.w3.org/1999/xlink" x="0px" y="0px"
	 viewBox="0 0 48 48" style="enable-background:new 0 0 48 48;" xml:space="preserve">
<path style="fill:none;stroke:#000000;stroke-width:3;stroke-linecap:round;stroke-linejoin:round;stroke-miterlimit:10;" d="
	M40.5,18.298V36.5c0,2.209-1.791,4-4,4h-25c-2.209,0-4-1.791-4-4v-1.032"/>
<path style="fill:none;stroke:#000000;stroke-width:3;stroke-linecap:round;stroke-linejoin:round;stroke-miterlimit:10;" d="
	M7.5,30.489V11.5c0-2.209,1.791-4,4-4h25c2.209,0,4,1.791,4,4v1.564"/>
<path style="fill:none;stroke:#000000;stroke-width:3;stroke-linecap:round;stroke-linejoin:round;stroke-miterlimit:10;" d="
	M16.438,14.5h6c0.552,0,1,0.448,1,1v17c0,0.552-0.448,1-1,1h-6c-0.552,0-1-0.448-1-1v-17C15.438,14.948,15.885,14.5,16.438,14.5z"/>
<path style="fill:none;stroke:#000000;stroke-width:3;stroke-linecap:round;stroke-linejoin:round;stroke-miterlimit:10;" d="
	M24.521,18.896c0-2.497,2.024-4.521,4.521-4.521s4.521,2.024,4.521,4.521s-2.024,4.521-4.521,4.521S24.521,21.393,24.521,18.896"/>
<circle style="fill:none;stroke:#000000;stroke-width:3;stroke-linecap:round;stroke-linejoin:round;stroke-miterlimit:10;" cx="29.042" cy="29.104" r="4.521"/>
</svg>
