<?xml version="1.0" encoding="utf-8"?>
<svg version="1.1" id="Layer_1" xmlns="http://www.w3.org/2000/svg" xmlns:xlink="http://www.w3.org/1999/xlink" x="0px" y="0px"
	 viewBox="0 0 48 48" style="enable-background:new 0 0 48 48;" xml:space="preserve">
<style type="text/css">
	.st0{fill:#90CAF9;}
	.st1{fill:#F48FB1;}
	.st2{fill:#8CE7F2;}
	.st3{fill:none;stroke-rule:evenodd;stroke-width:3;stroke-linecap:round;stroke-linejoin:round;stroke-miterlimit:10;}
	.st4{fill:none;stroke-rule:evenodd;stroke-width:3;stroke-linecap:round;stroke-miterlimit:10;}
	.st5{fill:#9FA8DA;}
	.st6{fill:none;stroke-rule:evenodd;stroke-width:3;stroke-miterlimit:10;}
	.st7{fill:none;stroke-rule:evenodd;stroke-width:3;stroke-linecap:round;stroke-linejoin:round;}
	.st8{fill:none;stroke-rule:evenodd;stroke-width:3;stroke-linecap:round;stroke-linejoin:round;stroke-miterlimit:5;}
	.st9{fill:#FFE082;}
	.st10{fill:#CCCCCC;}
	.st11{fill:none;stroke:#18193F;stroke-width:3;stroke-linecap:round;stroke-linejoin:round;stroke-miterlimit:10;}
	.st12{fill:none;stroke:#18193F;stroke-width:3;stroke-miterlimit:10;}
	.st13{fill:none;stroke:#18193F;stroke-width:3;stroke-linecap:round;stroke-miterlimit:10;}
	.st14{fill:none;stroke:#18193F;stroke-width:3;stroke-linecap:round;stroke-linejoin:round;}
	.st15{fill:none;stroke:#18193F;stroke-width:3;stroke-linecap:round;stroke-linejoin:round;stroke-miterlimit:5;}
	.st16{fill:#18193F;}
	.st17{fill:none;stroke-rule:evenodd;stroke-width:3;stroke-linecap:round;}
	.st18{fill:none;stroke-rule:evenodd;stroke-width:3;stroke-miterlimit:20;}
	.st19{fill:none;stroke-rule:evenodd;stroke-width:3;stroke-linejoin:round;}
	.st20{fill:none;stroke-rule:evenodd;stroke-width:2.5;stroke-linecap:round;}
	.st21{fill:none;stroke-rule:evenodd;stroke-width:2.5;stroke-linecap:round;stroke-linejoin:round;}
	.st22{fill:#FFAB91;}
	.st23{fill:#A5D6A7;}
	.st24{fill:none;stroke:#18193F;stroke-width:3;stroke-linecap:round;}
	.st25{fill:none;stroke:#18193F;stroke-width:3;stroke-linejoin:round;}
	.st26{fill:none;stroke:#18193F;stroke-width:3;stroke-miterlimit:20;}
	.st27{fill:none;stroke:#18193F;stroke-width:2.5;stroke-linecap:round;}
	.st28{fill:none;stroke:#18193F;stroke-width:2.5;stroke-linecap:round;stroke-linejoin:round;}
	.st29{fill:none;stroke-rule:evenodd;stroke-width:3;stroke-linejoin:round;stroke-miterlimit:10;}
	.st30{fill:none;stroke:#18193F;stroke-width:3;stroke-linejoin:round;stroke-miterlimit:10;}
</style>
<path class="st3" d="M41.5,21.1v-4.6c0-5.5-4.5-10-10-10h-15c-5.5,0-10,4.5-10,10v3"/>
<path class="st3" d="M6.5,25.6v5.9c0,5.5,4.5,10,10,10h15c5.5,0,10-4.5,10-10v-4.6"/>
<path class="st6" d="M24,15.5c-4.7,0-8.5,3.8-8.5,8.5s3.8,8.5,8.5,8.5s8.5-3.8,8.5-8.5S28.7,15.5,24,15.5z"/>
<path d="M34,12c-1.1,0-2,0.9-2,2s0.9,2,2,2s2-0.9,2-2S35.1,12,34,12z"/>
</svg>
