<?xml version="1.0" encoding="iso-8859-1"?>
<!-- Generator: Adobe Illustrator 23.0.3, SVG Export Plug-In . SVG Version: 6.00 Build 0)  -->
<svg version="1.1" id="Layer_1" xmlns="http://www.w3.org/2000/svg" xmlns:xlink="http://www.w3.org/1999/xlink" x="0px" y="0px"
	 viewBox="0 0 48 48" style="enable-background:new 0 0 48 48;" xml:space="preserve">
<path style="fill:none;stroke:#000000;stroke-width:3;stroke-linecap:round;stroke-miterlimit:10;" d="M7.5,28.559V11.5
	c0-2.2,1.8-4,4-4h25c2.2,0,4,1.8,4,4v1.245"/>
<path style="fill:none;stroke:#000000;stroke-width:3;stroke-linecap:round;stroke-miterlimit:10;" d="M40.5,18.617V36.5
	c0,2.2-1.8,4-4,4h-25c-2.2,0-4-1.8-4-4v-1.755"/>
<path d="M29.271,32.389c0.629,1.026,1.312,2.009,2.758,2.009c1.215,0,1.853-0.607,1.853-1.446c0-1.005-0.659-1.362-1.996-1.946
	l-0.733-0.314c-2.115-0.901-3.522-2.031-3.522-4.418c0-2.199,1.675-3.873,4.294-3.873c1.864,0,3.204,0.649,4.17,2.348l-2.283,1.466
	c-0.503-0.901-1.045-1.256-1.887-1.256c-0.859,0-1.403,0.545-1.403,1.256c0,0.88,0.545,1.236,1.803,1.78l0.733,0.314
	c2.492,1.067,3.898,2.156,3.898,4.605c0,2.64-2.074,4.086-4.859,4.086c-2.723,0-4.27-1.373-5.131-3.074L29.271,32.389z"/>
<path d="M18.623,32.464c0.466,0.827,1.176,1.462,2.195,1.462c0.975,0,1.537-0.381,1.537-1.864V22.4h3.074v10.129
	c0,3.072-1.801,4.471-4.431,4.471c-2.376,0-4.091-1.593-4.79-3.074L18.623,32.464z"/>
</svg>